<svg width="15" height="15" viewBox="0 0 15 15" fill="none" xmlns="http://www.w3.org/2000/svg">
<path fill-rule="evenodd" clip-rule="evenodd" d="M11.3775 0C12.5475 0 13.5 0.9525 13.5 2.1225V8.25H15V12.75C15 13.575 14.325 14.25 13.5 14.25C13.5 14.6625 13.1625 15 12.75 15H2.25C1.8375 15 1.5 14.6625 1.5 14.25C0.675 14.25 0 13.575 0 12.75V8.25H2.25V7.6875C2.25 6.7575 3 6.0075 3.93 6C4.1925 6 4.4475 6.06 4.68 6.1725C4.875 6.2625 5.055 6.39 5.1975 6.5475L6.2475 7.71C6.435 7.9125 6.6375 8.0925 6.8625 8.25H12V2.1225C12 1.7775 11.7225 1.5 11.3775 1.5C11.2125 1.5 11.055 1.5675 10.9425 1.68L10.005 2.6175C10.035 2.745 10.0575 2.865 10.0575 3C10.0575 3.3 9.9675 3.5775 9.8175 3.81L7.7475 1.74C7.98 1.59 8.2575 1.5 8.5575 1.5C8.6925 1.5 8.82 1.5225 8.94 1.56L9.8775 0.6225C10.275 0.225 10.815 0 11.3775 0ZM3.75 2.25C4.57843 2.25 5.25 2.92157 5.25 3.75C5.25 4.57843 4.57843 5.25 3.75 5.25C2.92157 5.25 2.25 4.57843 2.25 3.75C2.25 2.92157 2.92157 2.25 3.75 2.25Z" fill="#133E87"/>
</svg>
