<svg width="16" height="16" viewBox="0 0 16 16" fill="none" xmlns="http://www.w3.org/2000/svg">
<g clip-path="url(#clip0_497_12237)">
<path d="M6.6665 7.33331V11.3333" stroke="#E7000B" stroke-width="1.33333" stroke-linecap="round" stroke-linejoin="round"/>
<path d="M9.3335 7.33331V11.3333" stroke="#E7000B" stroke-width="1.33333" stroke-linecap="round" stroke-linejoin="round"/>
<path d="M12.6668 4V13.3333C12.6668 13.687 12.5264 14.0261 12.2763 14.2761C12.0263 14.5262 11.6871 14.6667 11.3335 14.6667H4.66683C4.31321 14.6667 3.97407 14.5262 3.72402 14.2761C3.47397 14.0261 3.3335 13.687 3.3335 13.3333V4" stroke="#E7000B" stroke-width="1.33333" stroke-linecap="round" stroke-linejoin="round"/>
<path d="M2 4H14" stroke="#E7000B" stroke-width="1.33333" stroke-linecap="round" stroke-linejoin="round"/>
<path d="M5.3335 3.99998V2.66665C5.3335 2.31302 5.47397 1.97389 5.72402 1.72384C5.97407 1.47379 6.31321 1.33331 6.66683 1.33331H9.3335C9.68712 1.33331 10.0263 1.47379 10.2763 1.72384C10.5264 1.97389 10.6668 2.31302 10.6668 2.66665V3.99998" stroke="#E7000B" stroke-width="1.33333" stroke-linecap="round" stroke-linejoin="round"/>
</g>
<defs>
<clipPath id="clip0_497_12237">
<rect width="16" height="16" fill="white"/>
</clipPath>
</defs>
</svg>
