<svg width="28" height="28" viewBox="0 0 28 28" fill="none" xmlns="http://www.w3.org/2000/svg">
<path d="M11.6667 25.6667V18.0017" stroke="white" stroke-width="2.33333" stroke-linecap="round" stroke-linejoin="round"/>
<path d="M14 12.8333H14.0117" stroke="white" stroke-width="2.33333" stroke-linecap="round" stroke-linejoin="round"/>
<path d="M14 8.16667H14.0117" stroke="white" stroke-width="2.33333" stroke-linecap="round" stroke-linejoin="round"/>
<path d="M16.3333 18.0017V25.6667" stroke="white" stroke-width="2.33333" stroke-linecap="round" stroke-linejoin="round"/>
<path d="M17.5 18.6667C16.4903 17.9094 15.2622 17.5 14 17.5C12.7378 17.5 11.5097 17.9094 10.5 18.6667" stroke="white" stroke-width="2.33333" stroke-linecap="round" stroke-linejoin="round"/>
<path d="M18.6667 12.8333H18.6783" stroke="white" stroke-width="2.33333" stroke-linecap="round" stroke-linejoin="round"/>
<path d="M18.6667 8.16667H18.6783" stroke="white" stroke-width="2.33333" stroke-linecap="round" stroke-linejoin="round"/>
<path d="M9.33334 12.8333H9.34501" stroke="white" stroke-width="2.33333" stroke-linecap="round" stroke-linejoin="round"/>
<path d="M9.33334 8.16667H9.34501" stroke="white" stroke-width="2.33333" stroke-linecap="round" stroke-linejoin="round"/>
<path d="M21 2.33333H6.99999C5.71133 2.33333 4.66666 3.378 4.66666 4.66667V23.3333C4.66666 24.622 5.71133 25.6667 6.99999 25.6667H21C22.2887 25.6667 23.3333 24.622 23.3333 23.3333V4.66667C23.3333 3.378 22.2887 2.33333 21 2.33333Z" stroke="white" stroke-width="2.33333" stroke-linecap="round" stroke-linejoin="round"/>
</svg>
