<svg width="22" height="22" viewBox="0 0 22 22" fill="none" xmlns="http://www.w3.org/2000/svg">
<path fill-rule="evenodd" clip-rule="evenodd" d="M10.5845 1.94231C11.9935 1.88682 13.4046 1.92546 14.8088 2.05795C15.4899 2.04919 16.1666 2.17119 16.8038 2.41761C17.6828 2.83618 18.3892 3.55812 18.7988 4.45643C19.0393 5.10922 19.1575 5.80242 19.1473 6.49988C19.1473 7.57884 19.2605 7.9385 19.2605 10.8169C19.3148 12.2569 19.277 13.699 19.1473 15.1339C19.1559 15.8301 19.0365 16.5216 18.7954 17.1728C18.3858 18.0711 17.6794 18.793 16.8004 19.2116C16.1633 19.458 15.4865 19.58 14.8054 19.5712C13.7496 19.5712 13.3976 19.6869 10.5811 19.6869C9.17309 19.7411 7.76314 19.7013 6.36021 19.5678C5.67905 19.5765 5.00232 19.4545 4.3652 19.2081C3.48696 18.7907 2.78063 18.0705 2.37019 17.1739C2.12907 16.5228 2.00969 15.8312 2.01826 15.1351C2.01826 14.0561 1.9051 13.6965 1.9051 10.8181C1.85081 9.37807 1.88861 7.93599 2.01826 6.50103C2.00969 5.80491 2.12907 5.11332 2.37019 4.46221C2.57497 4.01708 2.85283 3.61108 3.19173 3.26181C3.4669 2.84235 3.88537 2.54295 4.3652 2.42223C5.00232 2.17582 5.67905 2.05382 6.36021 2.06258C7.76434 1.93008 9.17543 1.89145 10.5845 1.94693V1.94231ZM10.5845 0.0237547C9.13773 -0.0302706 7.68908 0.00835338 6.24705 0.1394C5.36344 0.138363 4.48711 0.302585 3.66134 0.623952C2.94927 0.861333 2.30478 1.27303 1.78402 1.82319C1.24568 2.35539 0.842824 3.01403 0.610544 3.74174C0.239776 4.56852 0.076803 5.4768 0.136403 6.38423C0.00817205 7.85792 -0.029622 9.33838 0.0232424 10.8169C-0.0298113 12.297 0.00798291 13.779 0.136403 15.2542C0.134494 16.1554 0.293643 17.0493 0.606018 17.8921C0.838298 18.6198 1.24115 19.2784 1.77949 19.8106C2.30025 20.3608 2.94474 20.7725 3.65682 21.0099C4.48145 21.3291 5.35619 21.4917 6.238 21.4898C7.68153 21.621 9.1317 21.6596 10.58 21.6054C12.0282 21.6596 13.4784 21.621 14.9219 21.4898C15.8037 21.4917 16.6785 21.3291 17.5031 21.0099C18.2112 20.7611 18.8544 20.3505 19.3838 19.8095C19.9133 19.2684 20.315 18.6111 20.5584 17.8874C20.8708 17.0447 21.03 16.1507 21.028 15.2496C21.028 14.0503 21.1412 13.6907 21.1412 10.8123C21.1943 9.33222 21.1565 7.85021 21.028 6.37498C21.03 5.47381 20.8708 4.57985 20.5584 3.73712C20.3261 3.0094 19.9233 2.35077 19.385 1.81857C18.864 1.27024 18.22 0.860171 17.5088 0.623952C16.6841 0.303001 15.8089 0.138786 14.9264 0.1394C13.4829 0.00815707 12.0327 -0.030467 10.5845 0.0237547ZM10.5845 5.30064C9.87244 5.28876 9.16532 5.42332 8.50518 5.69633C7.84505 5.96935 7.24537 6.37523 6.74181 6.88985C6.23825 7.40447 5.84108 8.01731 5.57394 8.69194C5.30679 9.36658 5.17512 10.0892 5.18674 10.8169C5.18674 11.9079 5.50331 12.9744 6.09643 13.8816C6.68954 14.7887 7.53255 15.4958 8.51886 15.9133C9.50517 16.3308 10.5905 16.44 11.6375 16.2272C12.6846 16.0143 13.6464 15.489 14.4013 14.7175C15.1562 13.946 15.6702 12.9631 15.8785 11.8931C16.0868 10.823 15.9799 9.71389 15.5713 8.70592C15.1628 7.69795 14.471 6.83643 13.5833 6.23029C12.6957 5.62416 11.6521 5.30064 10.5845 5.30064ZM10.5845 14.4146C10.1199 14.4232 9.65829 14.3361 9.22736 14.1583C8.79643 13.9806 8.40497 13.7159 8.07638 13.3801C7.74778 13.0443 7.48878 12.6442 7.31485 12.2038C7.14092 11.7634 7.05563 11.2917 7.06407 10.8169C7.05563 10.3421 7.14092 9.87037 7.31485 9.42998C7.48878 8.98958 7.74778 8.58953 8.07638 8.25372C8.40497 7.91791 8.79643 7.65322 9.22736 7.47547C9.65829 7.29773 10.1199 7.21056 10.5845 7.21919C11.0491 7.21056 11.5107 7.29773 11.9416 7.47547C12.3725 7.65322 12.764 7.91791 13.0926 8.25372C13.4212 8.58953 13.6802 8.98958 13.8541 9.42998C14.028 9.87037 14.1133 10.3421 14.1049 10.8169C14.1133 11.2917 14.028 11.7634 13.8541 12.2038C13.6802 12.6442 13.4212 13.0443 13.0926 13.3801C12.764 13.7159 12.3725 13.9806 11.9416 14.1583C11.5107 14.3361 11.0491 14.4232 10.5845 14.4146ZM16.2176 3.74059C15.9622 3.74059 15.7126 3.81797 15.5003 3.96296C15.2879 4.10795 15.1225 4.31403 15.0247 4.55514C14.927 4.79625 14.9014 5.06156 14.9513 5.31752C15.0011 5.57348 15.124 5.80859 15.3046 5.99313C15.4852 6.17767 15.7152 6.30334 15.9657 6.35425C16.2162 6.40516 16.4758 6.37903 16.7117 6.27916C16.9476 6.17929 17.1493 6.01017 17.2912 5.79317C17.433 5.57618 17.5088 5.32107 17.5088 5.06009C17.5058 4.71107 17.3688 4.3772 17.1273 4.1304C16.8858 3.88359 16.5591 3.7436 16.2176 3.74059Z" fill="white"/>
</svg>
