<svg width="25" height="24" viewBox="0 0 25 24" fill="none" xmlns="http://www.w3.org/2000/svg">
<path d="M12.5 21.864C12.2569 21.864 12.0486 21.7977 11.875 21.6652C11.7014 21.5327 11.5712 21.3588 11.4844 21.1435C11.1545 20.2159 10.7378 19.3463 10.2344 18.5347C9.74826 17.7231 9.06249 16.7707 8.17708 15.6775C7.29166 14.5843 6.57118 13.5408 6.01562 12.547C5.47743 11.5532 5.20833 10.3523 5.20833 8.94438C5.20833 7.00644 5.91145 5.36665 7.3177 4.02499C8.74131 2.66678 10.4687 1.98767 12.5 1.98767C14.5312 1.98767 16.25 2.66678 17.6562 4.02499C19.0799 5.36665 19.7917 7.00644 19.7917 8.94438C19.7917 10.4517 19.4878 11.7105 18.8802 12.7209C18.2899 13.7147 17.6042 14.7002 16.8229 15.6775C15.8854 16.8701 15.1736 17.8639 14.6875 18.6589C14.2187 19.4374 13.8281 20.2656 13.5156 21.1435C13.4288 21.3754 13.2899 21.5576 13.099 21.6901C12.9253 21.806 12.7257 21.864 12.5 21.864ZM12.5 11.4289C13.2292 11.4289 13.8455 11.1888 14.349 10.7084C14.8524 10.2281 15.1042 9.64006 15.1042 8.94438C15.1042 8.24871 14.8524 7.6607 14.349 7.18036C13.8455 6.70002 13.2292 6.45984 12.5 6.45984C11.7708 6.45984 11.1545 6.70002 10.651 7.18036C10.1476 7.6607 9.89583 8.24871 9.89583 8.94438C9.89583 9.64006 10.1476 10.2281 10.651 10.7084C11.1545 11.1888 11.7708 11.4289 12.5 11.4289Z" fill="#608BC1"/>
</svg>
