<svg width="16" height="16" viewBox="0 0 16 16" fill="none" xmlns="http://www.w3.org/2000/svg">
<path d="M8 2H3.33333C2.97971 2 2.64057 2.14048 2.39052 2.39052C2.14048 2.64057 2 2.97971 2 3.33333V12.6667C2 13.0203 2.14048 13.3594 2.39052 13.6095C2.64057 13.8595 2.97971 14 3.33333 14H12.6667C13.0203 14 13.3594 13.8595 13.6095 13.6095C13.8595 13.3594 14 13.0203 14 12.6667V8" stroke="#133E87" stroke-width="1.33333" stroke-linecap="round" stroke-linejoin="round"/>
<path d="M12.2499 1.74997C12.5151 1.48475 12.8748 1.33575 13.2499 1.33575C13.625 1.33575 13.9847 1.48475 14.2499 1.74997C14.5151 2.01518 14.6641 2.3749 14.6641 2.74997C14.6641 3.12504 14.5151 3.48475 14.2499 3.74997L8.24123 9.7593C8.08293 9.91747 7.88737 10.0332 7.67257 10.096L5.75723 10.656C5.69987 10.6727 5.63906 10.6737 5.58117 10.6589C5.52329 10.644 5.47045 10.6139 5.4282 10.5717C5.38594 10.5294 5.35583 10.4766 5.341 10.4187C5.32617 10.3608 5.32717 10.3 5.3439 10.2426L5.9039 8.3273C5.96692 8.11267 6.08292 7.91734 6.24123 7.7593L12.2499 1.74997Z" stroke="#133E87" stroke-width="1.33333" stroke-linecap="round" stroke-linejoin="round"/>
</svg>
