<svg width="20" height="20" viewBox="0 0 20 20" fill="none" xmlns="http://www.w3.org/2000/svg">
<path d="M11.5267 13.8065C11.6989 13.8855 11.8927 13.9036 12.0765 13.8577C12.2602 13.8118 12.4229 13.7047 12.5376 13.554L12.8334 13.1665C12.9887 12.9595 13.19 12.7915 13.4214 12.6758C13.6528 12.5601 13.908 12.4998 14.1667 12.4998H16.6667C17.1088 12.4998 17.5327 12.6754 17.8453 12.988C18.1578 13.3006 18.3334 13.7245 18.3334 14.1665V16.6665C18.3334 17.1085 18.1578 17.5325 17.8453 17.845C17.5327 18.1576 17.1088 18.3332 16.6667 18.3332C12.6885 18.3332 8.87319 16.7528 6.06015 13.9398C3.2471 11.1267 1.66675 7.31142 1.66675 3.33317C1.66675 2.89114 1.84234 2.46722 2.1549 2.15466C2.46746 1.8421 2.89139 1.6665 3.33341 1.6665H5.83341C6.27544 1.6665 6.69936 1.8421 7.01193 2.15466C7.32449 2.46722 7.50008 2.89114 7.50008 3.33317V5.83317C7.50008 6.09191 7.43984 6.3471 7.32413 6.57853C7.20841 6.80995 7.04041 7.01126 6.83341 7.1665L6.44341 7.459C6.29043 7.57582 6.1826 7.74199 6.13824 7.9293C6.09388 8.1166 6.11573 8.31348 6.20008 8.4865C7.33898 10.7997 9.2121 12.6705 11.5267 13.8065Z" stroke="#608BC1" stroke-width="1.66667" stroke-linecap="round" stroke-linejoin="round"/>
</svg>
