<svg width="20" height="20" viewBox="0 0 20 20" fill="none" xmlns="http://www.w3.org/2000/svg">
<path d="M12.5 1.66666H7.49999C7.03975 1.66666 6.66666 2.03975 6.66666 2.49999V4.16666C6.66666 4.62689 7.03975 4.99999 7.49999 4.99999H12.5C12.9602 4.99999 13.3333 4.62689 13.3333 4.16666V2.49999C13.3333 2.03975 12.9602 1.66666 12.5 1.66666Z" stroke="#133E87" stroke-width="1.66667" stroke-linecap="round" stroke-linejoin="round"/>
<path d="M13.3333 3.33334H15C15.442 3.33334 15.866 3.50894 16.1785 3.8215C16.4911 4.13406 16.6667 4.55798 16.6667 5.00001V16.6667C16.6667 17.1087 16.4911 17.5326 16.1785 17.8452C15.866 18.1577 15.442 18.3333 15 18.3333H5.00001C4.55798 18.3333 4.13406 18.1577 3.8215 17.8452C3.50894 17.5326 3.33334 17.1087 3.33334 16.6667V5.00001C3.33334 4.55798 3.50894 4.13406 3.8215 3.8215C4.13406 3.50894 4.55798 3.33334 5.00001 3.33334H6.66668" stroke="#133E87" stroke-width="1.66667" stroke-linecap="round" stroke-linejoin="round"/>
<path d="M10 9.16666H13.3333" stroke="#133E87" stroke-width="1.66667" stroke-linecap="round" stroke-linejoin="round"/>
<path d="M10 13.3333H13.3333" stroke="#133E87" stroke-width="1.66667" stroke-linecap="round" stroke-linejoin="round"/>
<path d="M6.66666 9.16666H6.67499" stroke="#133E87" stroke-width="1.66667" stroke-linecap="round" stroke-linejoin="round"/>
<path d="M6.66666 13.3333H6.67499" stroke="#133E87" stroke-width="1.66667" stroke-linecap="round" stroke-linejoin="round"/>
</svg>
