<svg width="20" height="20" viewBox="0 0 20 20" fill="none" xmlns="http://www.w3.org/2000/svg">
<path d="M9.1665 16.6667H1.6665" stroke="#133E87" stroke-width="1.66667" stroke-linecap="round" stroke-linejoin="round"/>
<path d="M9.1665 3.80167V17.2658C9.16654 17.3924 9.19541 17.5173 9.25093 17.6311C9.30644 17.7448 9.38714 17.8445 9.4869 17.9224C9.58666 18.0003 9.70286 18.0544 9.82668 18.0807C9.9505 18.1071 10.0787 18.1048 10.2015 18.0742L15.8332 16.6667V4.635C15.8331 4.26334 15.7088 3.90237 15.4801 3.60944C15.2513 3.31652 14.9312 3.10846 14.5707 3.01833L11.2373 2.185C10.9917 2.1236 10.7353 2.11898 10.4876 2.17146C10.24 2.22395 10.0075 2.33218 9.80789 2.48793C9.60828 2.64368 9.44678 2.84286 9.33565 3.07035C9.22451 3.29784 9.16667 3.54849 9.1665 3.80167Z" stroke="#133E87" stroke-width="1.66667" stroke-linecap="round" stroke-linejoin="round"/>
<path d="M9.16667 3.33334H6.66667C6.22464 3.33334 5.80072 3.50894 5.48816 3.8215C5.17559 4.13406 5 4.55798 5 5.00001V16.6667" stroke="#133E87" stroke-width="1.66667" stroke-linecap="round" stroke-linejoin="round"/>
<path d="M11.6665 10H11.6748" stroke="#133E87" stroke-width="1.66667" stroke-linecap="round" stroke-linejoin="round"/>
<path d="M18.3335 16.6667H15.8335" stroke="#133E87" stroke-width="1.66667" stroke-linecap="round" stroke-linejoin="round"/>
</svg>
