<svg width="16" height="16" viewBox="0 0 16 16" fill="none" xmlns="http://www.w3.org/2000/svg">
<path d="M7.33325 13.3333H1.33325" stroke="#00A63E" stroke-width="1.33333" stroke-linecap="round" stroke-linejoin="round"/>
<path d="M7.33325 3.04135V13.8127C7.33328 13.914 7.35638 14.0139 7.40079 14.1049C7.4452 14.1959 7.50976 14.2756 7.58957 14.3379C7.66938 14.4002 7.76234 14.4436 7.8614 14.4646C7.96045 14.4857 8.063 14.4839 8.16125 14.4594L12.6666 13.3334V3.70802C12.6665 3.41069 12.5671 3.12191 12.3841 2.88757C12.2011 2.65324 11.945 2.48679 11.6566 2.41469L8.98992 1.74802C8.79342 1.6989 8.58831 1.6952 8.39016 1.73719C8.19202 1.77918 8.00604 1.86576 7.84636 1.99036C7.68667 2.11496 7.55747 2.27431 7.46857 2.4563C7.37966 2.63829 7.33338 2.83881 7.33325 3.04135Z" stroke="#00A63E" stroke-width="1.33333" stroke-linecap="round" stroke-linejoin="round"/>
<path d="M7.33333 2.66666H5.33333C4.97971 2.66666 4.64057 2.80713 4.39052 3.05718C4.14048 3.30723 4 3.64637 4 3.99999V13.3333" stroke="#00A63E" stroke-width="1.33333" stroke-linecap="round" stroke-linejoin="round"/>
<path d="M9.33325 8H9.33992" stroke="#00A63E" stroke-width="1.33333" stroke-linecap="round" stroke-linejoin="round"/>
<path d="M14.6667 13.3333H12.6667" stroke="#00A63E" stroke-width="1.33333" stroke-linecap="round" stroke-linejoin="round"/>
</svg>
