<svg width="16" height="16" viewBox="0 0 16 16" fill="none" xmlns="http://www.w3.org/2000/svg">
<path d="M6.44729 2.75711C6.48402 2.37067 6.66351 2.01181 6.95069 1.75063C7.23787 1.48945 7.61211 1.34473 8.00029 1.34473C8.38847 1.34473 8.76271 1.48945 9.04989 1.75063C9.33707 2.01181 9.51656 2.37067 9.55329 2.75711C9.57537 3.00675 9.65727 3.24739 9.79205 3.45867C9.92683 3.66995 10.1105 3.84565 10.3276 3.97089C10.5447 4.09614 10.7887 4.16724 11.0391 4.17819C11.2895 4.18913 11.5388 4.1396 11.766 4.03378C12.1187 3.87363 12.5184 3.85045 12.8873 3.96877C13.2562 4.08708 13.5678 4.33841 13.7616 4.67385C13.9554 5.00928 14.0175 5.40482 13.9357 5.78349C13.854 6.16215 13.6342 6.49685 13.3193 6.72244C13.1142 6.86634 12.9468 7.05751 12.8312 7.27979C12.7157 7.50207 12.6553 7.74891 12.6553 7.99944C12.6553 8.24997 12.7157 8.49681 12.8312 8.71909C12.9468 8.94137 13.1142 9.13254 13.3193 9.27644C13.6342 9.50203 13.854 9.83673 13.9357 10.2154C14.0175 10.5941 13.9554 10.9896 13.7616 11.325C13.5678 11.6605 13.2562 11.9118 12.8873 12.0301C12.5184 12.1484 12.1187 12.1253 11.766 11.9651C11.5388 11.8593 11.2895 11.8097 11.0391 11.8207C10.7887 11.8316 10.5447 11.9027 10.3276 12.028C10.1105 12.1532 9.92683 12.3289 9.79205 12.5402C9.65727 12.7515 9.57537 12.9921 9.55329 13.2418C9.51656 13.6282 9.33707 13.9871 9.04989 14.2483C8.76271 14.5094 8.38847 14.6542 8.00029 14.6542C7.61211 14.6542 7.23787 14.5094 6.95069 14.2483C6.66351 13.9871 6.48402 13.6282 6.44729 13.2418C6.42525 12.992 6.34336 12.7513 6.20854 12.54C6.07371 12.3286 5.88994 12.1528 5.67278 12.0276C5.45562 11.9023 5.21147 11.8313 4.96101 11.8204C4.71055 11.8095 4.46116 11.8591 4.23396 11.9651C3.88122 12.1253 3.48151 12.1484 3.11263 12.0301C2.74374 11.9118 2.43207 11.6605 2.23828 11.325C2.04449 10.9896 1.98244 10.5941 2.0642 10.2154C2.14596 9.83673 2.36569 9.50203 2.68063 9.27644C2.88571 9.13254 3.05311 8.94137 3.16868 8.71909C3.28426 8.49681 3.34459 8.24997 3.34459 7.99944C3.34459 7.74891 3.28426 7.50207 3.16868 7.27979C3.05311 7.05751 2.88571 6.86634 2.68063 6.72244C2.36614 6.49674 2.14679 6.16217 2.06523 5.78376C1.98366 5.40535 2.0457 5.01014 2.23928 4.67492C2.43287 4.3397 2.74417 4.08843 3.11269 3.96994C3.4812 3.85144 3.88061 3.8742 4.23329 4.03378C4.46046 4.1396 4.70979 4.18913 4.96016 4.17819C5.21053 4.16724 5.45458 4.09614 5.67165 3.97089C5.88872 3.84565 6.07242 3.66995 6.2072 3.45867C6.34198 3.24739 6.42388 3.00675 6.44596 2.75711" stroke="white" stroke-width="1.33333" stroke-linecap="round" stroke-linejoin="round"/>
<path d="M8 10C9.10457 10 10 9.10457 10 8C10 6.89543 9.10457 6 8 6C6.89543 6 6 6.89543 6 8C6 9.10457 6.89543 10 8 10Z" stroke="white" stroke-width="1.33333" stroke-linecap="round" stroke-linejoin="round"/>
</svg>
