<svg width="25" height="26" viewBox="0 0 25 26" fill="none" xmlns="http://www.w3.org/2000/svg">
<path d="M9.375 17.2348C8.64583 17.2348 8.02951 16.9824 7.52604 16.4775C7.02257 15.9727 6.77083 15.3547 6.77083 14.6235C6.77083 13.8923 7.02257 13.2743 7.52604 12.7694C8.02951 12.2646 8.64583 12.0122 9.375 12.0122C10.1042 12.0122 10.7205 12.2646 11.224 12.7694C11.7274 13.2743 11.9792 13.8923 11.9792 14.6235C11.9792 15.3547 11.7274 15.9727 11.224 16.4775C10.7205 16.9824 10.1042 17.2348 9.375 17.2348ZM5.20833 22.9797C4.63542 22.9797 4.14497 22.7752 3.73698 22.3661C3.32899 21.957 3.125 21.4652 3.125 20.8907V6.26724C3.125 5.69274 3.32899 5.20094 3.73698 4.79184C4.14497 4.38273 4.63542 4.17817 5.20833 4.17817H6.25V2.08911H8.33333V4.17817H16.6667V2.08911H18.75V4.17817H19.7917C20.3646 4.17817 20.855 4.38273 21.263 4.79184C21.671 5.20094 21.875 5.69274 21.875 6.26724V20.8907C21.875 21.4652 21.671 21.957 21.263 22.3661C20.855 22.7752 20.3646 22.9797 19.7917 22.9797H5.20833ZM5.20833 20.8907H19.7917V10.4454H5.20833V20.8907Z" fill="#608BC1"/>
</svg>
