<svg width="22" height="18" viewBox="0 0 22 18" fill="none" xmlns="http://www.w3.org/2000/svg">
<path fill-rule="evenodd" clip-rule="evenodd" d="M6.69229 17.51C8.31452 17.5249 9.92341 17.2095 11.425 16.5819C12.9266 15.9544 14.2908 15.0274 15.4379 13.8551C16.5851 12.6827 17.4921 11.2886 18.1062 9.75402C18.7202 8.21946 19.029 6.57524 19.0143 4.91739V4.31719C19.8343 3.67939 20.5478 2.91002 21.127 2.03899C20.3401 2.38864 19.5113 2.63051 18.6624 2.7583C19.5351 2.19821 20.1967 1.35291 20.5397 0.359822C19.6918 0.842165 18.7839 1.20511 17.8408 1.43879C17.4439 0.981644 16.9557 0.616712 16.4092 0.368558C15.8626 0.120405 15.2704 -0.00521156 14.6724 0.00016562C13.5265 0.0189337 12.4328 0.492459 11.6224 1.32058C10.8121 2.1487 10.3488 3.26647 10.3304 4.43746C10.3023 4.76198 10.3408 5.08892 10.4436 5.39732C8.71684 5.31207 7.02787 4.85072 5.48981 4.04416C3.95175 3.2376 2.6001 2.10445 1.5254 0.720634C1.13911 1.41492 0.93668 2.20017 0.938097 2.99884C0.953586 3.7237 1.13074 4.43538 1.45607 5.07968C1.7814 5.72399 2.24632 6.28392 2.81543 6.71683C2.10998 6.70195 1.42123 6.49474 0.82041 6.11663C0.819265 7.14372 1.17111 8.13859 1.81452 8.92761C2.45794 9.71662 3.35207 10.2497 4.34082 10.4337C3.95848 10.5375 3.56207 10.5765 3.16735 10.5493C2.88861 10.5699 2.60872 10.5305 2.34581 10.4337C2.63215 11.3233 3.18049 12.1008 3.91579 12.6597C4.65109 13.2186 5.53744 13.5317 6.45353 13.5561C4.91101 14.7873 3.01299 15.4619 1.05578 15.4746C0.700031 15.4955 0.343341 15.4564 0 15.359C1.94186 16.8003 4.28926 17.558 6.6889 17.5181" fill="white"/>
</svg>
